<svg xmlns="http://www.w3.org/2000/svg" width="23" height="23" fill="none" viewBox="0 0 23 23">
  <rect width="23" height="23" fill="#FF7F33" rx="5"/>
  <path fill="#fff" d="M11.074 18.4a.341.341 0 0 1-.252-.098.341.341 0 0 1-.098-.252v-.966c-.719-.093-1.32-.275-1.806-.546-.476-.27-.835-.597-1.078-.98a2.52 2.52 0 0 1-.392-1.232c0-.075.028-.14.084-.196a.308.308 0 0 1 .224-.098H9.52c.13 0 .229.023.294.07.065.047.13.107.196.182.075.14.177.275.308.406.14.13.317.238.532.322.224.075.5.112.826.112.541 0 .947-.084 1.218-.252.28-.168.42-.397.42-.686a.64.64 0 0 0-.224-.504c-.15-.14-.392-.261-.728-.364a10.948 10.948 0 0 0-1.316-.336c-.71-.15-1.316-.34-1.82-.574-.495-.243-.873-.555-1.134-.938-.261-.392-.392-.877-.392-1.456 0-.747.266-1.381.798-1.904.541-.523 1.283-.85 2.226-.98v-.98c0-.103.033-.187.098-.252a.341.341 0 0 1 .252-.098h1.162c.093 0 .173.033.238.098a.32.32 0 0 1 .112.252v1.008c.644.112 1.185.313 1.624.602.439.29.77.616.994.98.233.364.355.714.364 1.05a.317.317 0 0 1-.084.21.285.285 0 0 1-.21.084h-1.848a.589.589 0 0 1-.266-.056.516.516 0 0 1-.196-.182c-.056-.205-.205-.383-.448-.532-.243-.159-.555-.238-.938-.238-.401 0-.719.075-.952.224-.233.14-.35.36-.35.658 0 .187.06.35.182.49.13.14.345.261.644.364.299.103.705.21 1.218.322.85.159 1.535.36 2.058.602.523.233.905.541 1.148.924.243.373.364.845.364 1.414 0 .55-.14 1.036-.42 1.456-.27.42-.653.76-1.148 1.022-.495.261-1.073.434-1.736.518v.98a.32.32 0 0 1-.112.252.324.324 0 0 1-.238.098h-1.162Z"/>
</svg>
