<svg xmlns="http://www.w3.org/2000/svg" width="63" height="23" fill="none" viewBox="0 0 63 23">
  <rect width="23" height="23" fill="#007AFF" rx="5"/>
  <path fill="#fff" d="M11.074 18.4a.341.341 0 0 1-.252-.098.341.341 0 0 1-.098-.252v-.966c-.719-.093-1.32-.275-1.806-.546-.476-.27-.835-.597-1.078-.98a2.52 2.52 0 0 1-.392-1.232c0-.075.028-.14.084-.196a.308.308 0 0 1 .224-.098H9.52c.13 0 .229.023.294.07.065.047.13.107.196.182.075.14.177.275.308.406.14.13.317.238.532.322.224.075.5.112.826.112.541 0 .947-.084 1.218-.252.28-.168.42-.397.42-.686a.64.64 0 0 0-.224-.504c-.15-.14-.392-.261-.728-.364a10.948 10.948 0 0 0-1.316-.336c-.71-.15-1.316-.34-1.82-.574-.495-.243-.873-.555-1.134-.938-.261-.392-.392-.877-.392-1.456 0-.747.266-1.381.798-1.904.541-.523 1.283-.85 2.226-.98v-.98c0-.103.033-.187.098-.252a.341.341 0 0 1 .252-.098h1.162c.093 0 .173.033.238.098a.32.32 0 0 1 .112.252v1.008c.644.112 1.185.313 1.624.602.439.29.77.616.994.98.233.364.355.714.364 1.05a.317.317 0 0 1-.084.21.285.285 0 0 1-.21.084h-1.848a.589.589 0 0 1-.266-.056.516.516 0 0 1-.196-.182c-.056-.205-.205-.383-.448-.532-.243-.159-.555-.238-.938-.238-.401 0-.719.075-.952.224-.233.14-.35.36-.35.658 0 .187.06.35.182.49.13.14.345.261.644.364.299.103.705.21 1.218.322.85.159 1.535.36 2.058.602.523.233.905.541 1.148.924.243.373.364.845.364 1.414 0 .55-.14 1.036-.42 1.456-.27.42-.653.76-1.148 1.022-.495.261-1.073.434-1.736.518v.98a.32.32 0 0 1-.112.252.324.324 0 0 1-.238.098h-1.162ZM28.33 18a.341.341 0 0 1-.252-.098.341.341 0 0 1-.098-.252v-9.1c0-.103.033-.187.098-.252a.341.341 0 0 1 .252-.098h6.538c.103 0 .187.033.252.098s.098.15.098.252v1.316a.341.341 0 0 1-.098.252.341.341 0 0 1-.252.098h-4.466v1.89h4.158a.32.32 0 0 1 .252.112c.065.065.098.15.098.252v1.218a.373.373 0 0 1-.098.252.341.341 0 0 1-.252.098h-4.158v1.946h4.578c.103 0 .187.033.252.098s.098.15.098.252v1.316a.341.341 0 0 1-.098.252.341.341 0 0 1-.252.098h-6.65Zm8.787 0a.341.341 0 0 1-.252-.098.341.341 0 0 1-.098-.252V8.41c0-.103.033-.187.098-.252a.341.341 0 0 1 .252-.098h1.652c.103 0 .187.033.252.098a.34.34 0 0 1 .098.252v9.24a.341.341 0 0 1-.098.252.341.341 0 0 1-.252.098h-1.652Zm4.006 0a.341.341 0 0 1-.252-.098.34.34 0 0 1-.098-.252v-6.58a.34.34 0 0 1 .098-.252.341.341 0 0 1 .252-.098h1.652c.094 0 .173.033.238.098a.32.32 0 0 1 .112.252v6.58a.32.32 0 0 1-.112.252.324.324 0 0 1-.238.098h-1.652Zm-.014-8.33a.341.341 0 0 1-.252-.098.34.34 0 0 1-.098-.252V8.074a.34.34 0 0 1 .098-.252.32.32 0 0 1 .252-.112h1.666a.32.32 0 0 1 .252.112.32.32 0 0 1 .112.252V9.32a.32.32 0 0 1-.112.252.341.341 0 0 1-.252.098H41.11ZM45.941 18a.373.373 0 0 1-.252-.098.34.34 0 0 1-.097-.252v-5.096h-1.064a.341.341 0 0 1-.252-.098.34.34 0 0 1-.099-.252V11.07a.34.34 0 0 1 .099-.252.341.341 0 0 1 .252-.098h1.064v-.448c0-.635.12-1.143.364-1.526a2.078 2.078 0 0 1 1.063-.84c.458-.177 1.004-.266 1.639-.266h1.091c.094 0 .173.033.238.098a.32.32 0 0 1 .112.252v1.134a.32.32 0 0 1-.111.252.324.324 0 0 1-.239.098h-.98c-.317 0-.54.075-.672.224-.12.15-.181.364-.181.644v.378h1.694c.093 0 .172.033.237.098a.32.32 0 0 1 .112.252v1.134a.32.32 0 0 1-.112.252.324.324 0 0 1-.238.098h-1.694v5.096a.341.341 0 0 1-.097.252.341.341 0 0 1-.252.098H45.94Zm7.092.14a3.18 3.18 0 0 1-1.358-.28 2.503 2.503 0 0 1-.938-.784 1.857 1.857 0 0 1-.35-1.106c0-.663.271-1.185.812-1.568.542-.392 1.26-.658 2.156-.798l1.75-.266v-.196c0-.336-.07-.593-.21-.77-.14-.177-.396-.266-.77-.266-.26 0-.476.051-.644.154a1.1 1.1 0 0 0-.378.42.402.402 0 0 1-.35.182h-1.568a.323.323 0 0 1-.238-.084.283.283 0 0 1-.07-.224c0-.168.061-.36.182-.574a2.53 2.53 0 0 1 .588-.658c.262-.215.598-.392 1.008-.532.411-.14.906-.21 1.484-.21.607 0 1.125.07 1.554.21.43.14.775.336 1.036.588.271.252.472.55.602.896.131.336.196.71.196 1.12v4.256a.32.32 0 0 1-.112.252.324.324 0 0 1-.238.098h-1.624a.341.341 0 0 1-.252-.098.341.341 0 0 1-.098-.252v-.49a2.03 2.03 0 0 1-.49.49c-.205.15-.448.266-.728.35-.27.093-.588.14-.952.14Zm.658-1.596c.271 0 .514-.056.728-.168a1.22 1.22 0 0 0 .518-.546c.131-.252.196-.565.196-.938v-.196l-1.19.21c-.438.075-.76.191-.966.35-.196.15-.294.327-.294.532 0 .159.047.294.14.406a.97.97 0 0 0 .364.266c.15.056.318.084.504.084ZM59.457 18a.342.342 0 0 1-.252-.098.341.341 0 0 1-.098-.252v-6.58c0-.103.033-.187.098-.252a.342.342 0 0 1 .252-.098h1.652c.094 0 .173.033.238.098a.32.32 0 0 1 .112.252v6.58a.32.32 0 0 1-.112.252.324.324 0 0 1-.238.098h-1.652Zm-.014-8.33a.341.341 0 0 1-.252-.098.34.34 0 0 1-.098-.252V8.074a.34.34 0 0 1 .098-.252.32.32 0 0 1 .252-.112h1.666a.32.32 0 0 1 .252.112.32.32 0 0 1 .112.252V9.32a.32.32 0 0 1-.112.252.341.341 0 0 1-.252.098h-1.666Z"/>
</svg>
